<?xml version="1.0" encoding="UTF-8"?>
<svg version="1.1" xmlns="http://www.w3.org/2000/svg" width="602" height="485">
<path d="M0 0 C198.66 0 397.32 0 602 0 C602 160.05 602 320.1 602 485 C403.34 485 204.68 485 0 485 C0 324.95 0 164.9 0 0 Z " fill="#FEFEFE" transform="translate(0,0)"/>
<path d="M0 0 C0.58531494 0.4120166 1.17062988 0.8240332 1.77368164 1.24853516 C4.99058295 3.62781728 6.21593955 5.0568791 8.0625 8.75 C-1.1775 17.99 -10.4175 27.23 -19.9375 36.75 C-23.73973507 35.22910597 -25.91944225 34.18150245 -29.0625 31.875 C-34.03286785 28.46412676 -39.22644509 26.57566509 -44.9375 24.75 C-46.4225 24.255 -46.4225 24.255 -47.9375 23.75 C-51.49588851 23.51853163 -55.05986736 23.56482559 -58.625 23.5625 C-59.59373047 23.55025391 -60.56246094 23.53800781 -61.56054688 23.52539062 C-77.73770301 23.49257692 -90.9517687 30.56551888 -102.734375 41.359375 C-116.38907359 56.1761756 -118.51733842 72.67887598 -117.9375 91.75 C-117.36265494 105.44483822 -108.94778815 118.88378434 -99.5234375 128.453125 C-95.2836383 132.21898895 -90.98088387 135.16106295 -85.9375 137.75 C-84.97070312 138.25660156 -84.00390625 138.76320312 -83.0078125 139.28515625 C-69.39980165 145.25737617 -50.53149791 145.32683388 -36.65625 140.01171875 C-35.7590625 139.59535156 -34.861875 139.17898437 -33.9375 138.75 C-32.9578125 138.30269531 -31.978125 137.85539063 -30.96875 137.39453125 C-20.35478638 132.07328336 -13.85791156 124.57750195 -8.9375 113.75 C-8.2775 110.78 -7.6175 107.81 -6.9375 104.75 C-24.0975 104.42 -41.2575 104.09 -58.9375 103.75 C-58.9375 90.88 -58.9375 78.01 -58.9375 64.75 C-27.5875 64.75 3.7625 64.75 36.0625 64.75 C37.6508653 72.69182648 38.41686096 79.0324522 38.375 86.9375 C38.36762817 88.58951416 38.36762817 88.58951416 38.36010742 90.27490234 C38.23807869 98.79188215 37.40034059 106.52496571 35.0625 114.75 C34.56943359 116.56951172 34.56943359 116.56951172 34.06640625 118.42578125 C29.89618371 132.32171311 22.79378441 144.97214349 13.0625 155.75 C12.33804688 156.57886719 11.61359375 157.40773437 10.8671875 158.26171875 C2.06834473 167.74298001 -8.70823813 173.6111056 -20.5 178.625 C-21.13494385 178.89916748 -21.7698877 179.17333496 -22.42407227 179.45581055 C-34.09478418 184.15062297 -45.965547 185.23646731 -58.4375 185.125 C-59.73558594 185.13660156 -61.03367187 185.14820313 -62.37109375 185.16015625 C-90.38945353 185.07618514 -114.04719483 173.01496471 -133.55126953 153.44335938 C-138.24379665 148.59848728 -142.20444302 143.36694852 -145.9375 137.75 C-146.67613281 136.66912109 -146.67613281 136.66912109 -147.4296875 135.56640625 C-150.34055396 131.14843438 -152.22595709 126.73708192 -153.9375 121.75 C-154.4325 120.533125 -154.9275 119.31625 -155.4375 118.0625 C-163.03126555 97.75916896 -163.37630426 74.28837563 -156.9375 53.75 C-156.68742188 52.80898437 -156.43734375 51.86796875 -156.1796875 50.8984375 C-151.26299331 32.64450389 -138.51007717 15.50624577 -123.9375 3.75 C-123.14859375 3.11191406 -122.3596875 2.47382812 -121.546875 1.81640625 C-85.94306468 -25.5260409 -36.549757 -25.76324973 0 0 Z " fill="#36A754" transform="translate(378.9375,86.25)"/>
<path d="M0 0 C0.58531494 0.4120166 1.17062988 0.8240332 1.77368164 1.24853516 C4.99058295 3.62781728 6.21593955 5.0568791 8.0625 8.75 C-1.1775 17.99 -10.4175 27.23 -19.9375 36.75 C-23.73973507 35.22910597 -25.91944225 34.18150245 -29.0625 31.875 C-34.03286785 28.46412676 -39.22644509 26.57566509 -44.9375 24.75 C-46.4225 24.255 -46.4225 24.255 -47.9375 23.75 C-51.49588851 23.51853163 -55.05986736 23.56482559 -58.625 23.5625 C-59.59373047 23.55025391 -60.56246094 23.53800781 -61.56054688 23.52539062 C-77.73770301 23.49257692 -90.9517687 30.56551888 -102.734375 41.359375 C-112.98445283 52.48179988 -118.12289925 66.37256691 -118.0625 81.25 C-118.07265137 82.59650635 -118.07265137 82.59650635 -118.08300781 83.97021484 C-118.08840244 88.95934484 -117.67379583 93.46913894 -116.6875 98.375 C-116.3415362 102.12294116 -116.55194883 103.27218659 -118.9453125 106.23828125 C-121.53822627 108.45320895 -124.15158494 110.42186139 -126.95605469 112.35058594 C-129.15875156 113.90626096 -131.26854798 115.55280767 -133.3828125 117.2265625 C-139.73861547 122.23476145 -139.73861547 122.23476145 -142.25 124.16015625 C-142.86488281 124.63590088 -143.47976562 125.11164551 -144.11328125 125.60180664 C-145.9375 126.75 -145.9375 126.75 -148.10546875 127.28686523 C-148.71003906 127.43969971 -149.31460938 127.59253418 -149.9375 127.75 C-150.4325 128.74 -150.4325 128.74 -150.9375 129.75 C-151.65448461 127.83804104 -152.37054055 125.92572893 -153.08203125 124.01171875 C-153.83658558 122.01680113 -154.63384616 120.03814902 -155.4375 118.0625 C-163.03126555 97.75916896 -163.37630426 74.28837563 -156.9375 53.75 C-156.68742188 52.80898437 -156.43734375 51.86796875 -156.1796875 50.8984375 C-151.26299331 32.64450389 -138.51007717 15.50624577 -123.9375 3.75 C-123.14859375 3.11191406 -122.3596875 2.47382812 -121.546875 1.81640625 C-85.94306468 -25.5260409 -36.549757 -25.76324973 0 0 Z " fill="#E84336" transform="translate(378.9375,86.25)"/>
<path d="M0 0 C31.35 0 62.7 0 95 0 C96.5883653 7.94182648 97.35436096 14.2824522 97.3125 22.1875 C97.30512817 23.83951416 97.30512817 23.83951416 97.29760742 25.52490234 C97.17557869 34.04188215 96.33784059 41.77496571 94 50 C93.67128906 51.21300781 93.34257812 52.42601562 93.00390625 53.67578125 C88.83778606 67.55804332 81.74105629 80.23686286 72 91 C71.34644531 91.76828125 70.69289063 92.5365625 70.01953125 93.328125 C68 95 68 95 66.13671875 95.0390625 C63.05671127 93.54128921 60.47223907 91.50310239 57.8125 89.375 C57.24023682 88.92640625 56.66797363 88.4778125 56.07836914 88.015625 C54.38048298 86.68338982 52.68930401 85.34309342 51 84 C49.31445629 82.66419447 47.62725638 81.33047263 45.9375 80 C45.26589844 79.46375 44.59429687 78.9275 43.90234375 78.375 C42.00744333 77.00537998 40.11819987 75.98125963 38 75 C38 74.34 38 73.68 38 73 C36.35 72.34 34.7 71.68 33 71 C34.0209375 70.01 34.0209375 70.01 35.0625 69 C44.06316791 59.92283916 49.17759156 52.700838 52 40 C34.84 39.67 17.68 39.34 0 39 C0 26.13 0 13.26 0 0 Z " fill="#4384F1" transform="translate(320,151)"/>
<path d="M0 0 C5.31826108 3.96262591 10.61591032 7.95224594 15.8371582 12.04223633 C18.75129372 14.31696205 21.69093796 16.4911596 24.76171875 18.55078125 C25.36669189 18.97198242 25.97166504 19.39318359 26.5949707 19.82714844 C27.75401516 20.6315326 28.93071747 21.41122802 30.12573242 22.16113281 C31.7109375 23.28515625 31.7109375 23.28515625 34 26 C34.14804236 28.30265884 33.84234056 30.28886656 33.42919922 32.55786133 C32.71435447 36.62531981 32.85743622 40.69379307 32.875 44.8125 C32.86823242 45.6876123 32.86146484 46.56272461 32.85449219 47.46435547 C32.84905032 52.37019786 33.28618204 56.79965166 34.25 61.625 C34.5959638 65.37294116 34.38555117 66.52218659 31.9921875 69.48828125 C29.39927373 71.70320895 26.78591506 73.67186139 23.98144531 75.60058594 C21.77874844 77.15626096 19.66895202 78.80280767 17.5546875 80.4765625 C11.19888453 85.48476145 11.19888453 85.48476145 8.6875 87.41015625 C8.07261719 87.88590088 7.45773438 88.36164551 6.82421875 88.85180664 C5 90 5 90 2.83203125 90.53686523 C2.22746094 90.68969971 1.62289062 90.84253418 1 91 C0.505 91.99 0.505 91.99 0 93 C-0.71698461 91.08804104 -1.43304055 89.17572893 -2.14453125 87.26171875 C-2.89908558 85.26680113 -3.69634616 83.28814902 -4.5 81.3125 C-12.08780127 61.02511555 -12.45836309 37.52168272 -6 17 C-5.72671875 16.02417969 -5.4534375 15.04835937 -5.171875 14.04296875 C-3.79934525 9.17340842 -2.1006218 4.60136204 0 0 Z " fill="#F8BD06" transform="translate(228,123)"/>
<path d="M0 0 C0.92683594 -0.00515625 1.85367188 -0.0103125 2.80859375 -0.015625 C5.72304176 0.26548488 7.91140497 1.03752097 10.5625 2.25 C10.8925 1.92 11.2225 1.59 11.5625 1.25 C13.89547433 1.20907063 16.22955225 1.20758277 18.5625 1.25 C18.63696471 6.67599527 18.69125037 12.1016894 18.72729492 17.52807617 C18.74232988 19.37187892 18.76276333 21.21564622 18.78881836 23.05932617 C18.82543561 25.7180255 18.84227943 28.37624971 18.85546875 31.03515625 C18.87095261 31.85210464 18.88643646 32.66905304 18.90238953 33.51075745 C18.90410523 39.41883385 18.02875029 44.31680632 14.09765625 48.9921875 C7.9850561 53.69418761 2.13166906 54.04097267 -5.4375 53.25 C-9.91309406 51.05289019 -12.53633067 48.26700369 -15.4375 44.25 C-14.7775 42.93 -14.1175 41.61 -13.4375 40.25 C-10.75 39.9375 -10.75 39.9375 -7.4375 40.25 C-6.674375 41.095625 -5.91125 41.94125 -5.125 42.8125 C-2.7641552 45.43063746 -2.7641552 45.43063746 -0.23046875 45.5 C3.42748368 45.21634618 5.80106927 44.9400466 8.5625 42.4375 C9.50896345 40.36711121 10.16267313 38.48903048 10.5625 36.25 C9.7375 36.745 8.9125 37.24 8.0625 37.75 C3.26882572 39.80443183 -0.615579 40.0793631 -5.55078125 38.62890625 C-11.15313942 36.25502567 -13.84984753 32.65852684 -16.4375 27.25 C-18.45704044 21.19137868 -17.78257022 15.11267555 -15.4375 9.25 C-11.23388632 3.16712374 -7.61947955 -0.04227173 0 0 Z " fill="#65686C" transform="translate(238.4375,340.75)"/>
<path d="M0 0 C5.38954461 3.08117355 8.62225136 7.14800408 10.59765625 13.07421875 C11.33907125 19.91711456 10.68819246 25.42298565 6.59765625 31.07421875 C2.30110565 35.70036776 -1.97621607 37.83558324 -8.21484375 38.44921875 C-13.57447845 38.28741846 -17.97537751 36.26156047 -21.9453125 32.68359375 C-26.56122391 27.53976285 -27.91839122 22.1162317 -27.703125 15.375 C-26.91058031 9.31254776 -24.19950795 5.29180335 -19.40234375 1.57421875 C-13.3372323 -2.07284168 -6.62155316 -2.55172049 0 0 Z " fill="#67696E" transform="translate(208.40234375,341.92578125)"/>
<path d="M0 0 C5.1918163 2.97436704 7.78223271 7.97169814 9.625 13.5 C10.40845685 20.01168238 9.44396138 25.11820211 5.625 30.5 C1.33615873 35.12959853 -2.95390726 37.26185973 -9.1875 37.875 C-14.5471347 37.71319971 -18.94803376 35.68734172 -22.91796875 32.109375 C-27.54012604 26.95858389 -28.86916184 21.54888341 -28.6875 14.8046875 C-27.94967974 9.36326309 -25.4245426 5.14131015 -21.3125 1.5625 C-15.17282903 -2.74833281 -6.87560923 -2.97288247 0 0 Z " fill="#66696D" transform="translate(169.375,342.5)"/>
<path d="M0 0 C2.9375 2.6875 2.9375 2.6875 5 5 C3.68 6.65 2.36 8.3 1 10 C-1.53360564 9.53081377 -3.10710826 8.92871697 -5.27734375 7.484375 C-9.9767514 4.92228762 -14.79059359 5.39200562 -20 6 C-24.27481043 7.27787927 -26.65477449 9.56625513 -29.4375 13.0625 C-32.11709847 18.46809692 -31.99709026 24.6390216 -30.3046875 30.34375 C-28.20406869 35.07455539 -25.63996838 37.53193171 -21 40 C-15.51302475 41.82899175 -10.87320504 41.68976898 -5.6875 39.25 C-2.69146056 37.57574267 -0.60754484 36.12052821 1 33 C1.33 31.35 1.66 29.7 2 28 C-3.61 28 -9.22 28 -15 28 C-15 25.69 -15 23.38 -15 21 C-6.75 21 1.5 21 10 21 C10.71848364 34.79488594 10.71848364 34.79488594 6.62109375 40.28515625 C0.79793371 46.44507736 -5.19783457 49.94872384 -13.75 50.375 C-21.11746634 50.18665876 -27.42256432 47.81153484 -32.875 42.8125 C-39.18532072 35.74136047 -40.74994541 28.85456317 -40.4453125 19.44140625 C-39.55295489 12.54520405 -36.72212956 7.26842774 -31.625 2.5625 C-22.62455059 -4.21182546 -9.96210894 -6.14683318 0 0 Z " fill="#66686D" transform="translate(127,330)"/>
<path d="M0 0 C23.72093023 0 23.72093023 0 30.875 6.6875 C33.63539853 10.99047417 33.92778151 14.02292912 33 19 C31.14062541 24.29765944 27.92505368 27.38670621 23 30 C18.22209531 31.5926349 12.97718486 31.06636246 8 31 C8 37.27 8 43.54 8 50 C5.36 50 2.72 50 0 50 C0 33.5 0 17 0 0 Z " fill="#7C7E82" transform="translate(330,328)"/>
<path d="M0 0 C4.89744699 1.66460631 8.14733052 4.72099578 11 9 C12 12 12 12 12 21 C3.09 21 -5.82 21 -15 21 C-12.83213255 27.54126074 -12.83213255 27.54126074 -10.25 29.4375 C-6.94155746 30.26461064 -4.40118241 30.41768907 -1 30 C0.68662458 28.35353315 2.35511706 26.68816933 4 25 C6.824381 25.13136656 8.49475261 25.74737631 11 27 C10.78087133 30.83475164 10.05971606 31.94164113 7.25 34.6875 C1.98197416 38.435903 -2.47724117 39.97300822 -9 39 C-14.26049576 37.23377184 -18.03438331 34.79061157 -21 30 C-23.98054083 23.74086426 -24.01875241 16.31094532 -22 9.75 C-15.89436768 1.35475557 -10.58203384 -1.83402512 0 0 Z " fill="#67696D" transform="translate(299,341)"/>
<path d="M0 0 C3.32385318 2.31896734 5.92506006 4.19797893 7.6875 7.875 C8.30820371 12.68008335 8.15759851 17.41536269 8 22.25 C7.97744141 23.55839844 7.95488281 24.86679687 7.93164062 26.21484375 C7.87285914 29.43606887 7.79072731 32.6549432 7.6875 35.875 C4.8125 36 4.8125 36 1.6875 35.875 C1.0275 35.215 0.3675 34.555 -0.3125 33.875 C-0.93125 34.37 -1.55 34.865 -2.1875 35.375 C-6.61266298 37.49907823 -10.4922471 37.82705617 -15.3125 36.875 C-18.7410785 34.85491861 -21.52097086 32.45805829 -23.3125 28.875 C-23.9327091 25.73559104 -24.03687545 23.00205741 -23.3125 19.875 C-20.29838808 16.08282663 -16.90910513 13.40720171 -12.3125 11.875 C-10.080231 11.96117726 -7.85011514 12.11422241 -5.625 12.3125 C-4.44550781 12.41433594 -3.26601563 12.51617187 -2.05078125 12.62109375 C-1.14714844 12.70488281 -0.24351562 12.78867187 0.6875 12.875 C-1.06704385 9.69265895 -1.06704385 9.69265895 -3.3125 6.875 C-8.95293935 6.39811894 -8.95293935 6.39811894 -14 8.5 C-14.763125 8.95375 -15.52625 9.4075 -16.3125 9.875 C-19.125 9.0625 -19.125 9.0625 -21.3125 7.875 C-21.3125 4.875 -21.3125 4.875 -19 2.25 C-13.69163426 -2.44111391 -6.48990565 -2.2041189 0 0 Z " fill="#686A6E" transform="translate(390.3125,342.125)"/>
<path d="M0 0 C4.88062876 1.63875126 8.16687462 4.75031193 11 9 C12 12 12 12 12 21 C3.09 21 -5.82 21 -15 21 C-12.82070464 27.51649306 -12.82070464 27.51649306 -10.3125 29.4375 C-6.83893667 30.28242081 -3.54018269 30.6403241 0 30 C0.680625 29.319375 1.36125 28.63875 2.0625 27.9375 C2.701875 27.298125 3.34125 26.65875 4 26 C7.75 26.25 7.75 26.25 11 27 C10.52525937 31.2726657 8.15665032 33.273802 5 36 C0.43947893 38.73631264 -4.84091804 38.65294631 -10 38 C-14.83160001 36.30710984 -18.28899478 33.31752684 -21 29 C-23.42905253 22.44155817 -23.97327012 16.91397981 -21.375 10.375 C-16.90246832 1.01463013 -9.80159583 -0.97474434 0 0 Z " fill="#6C6F73" transform="translate(512,341)"/>
<path d="M0 0 C3.61236691 1.44494676 6.03468594 3.54926198 8.16870117 6.82861328 C10.14629724 11.99417553 9.39187724 17.93455335 9.25 23.375 C9.23195313 24.68339844 9.21390625 25.99179687 9.1953125 27.33984375 C9.14829348 30.56064689 9.08258181 33.77994474 9 37 C6.36 37 3.72 37 1 37 C0.98541748 36.19256348 0.97083496 35.38512695 0.95581055 34.55322266 C0.88153914 30.9099873 0.78480975 27.26768967 0.6875 23.625 C0.66494141 22.35398437 0.64238281 21.08296875 0.61914062 19.7734375 C0.5659668 17.95585937 0.5659668 17.95585937 0.51171875 16.1015625 C0.48553467 14.98088379 0.45935059 13.86020508 0.43237305 12.70556641 C0.28968994 11.81272949 0.14700684 10.91989258 0 10 C-2.94083564 8.03944291 -3.68127952 7.68785455 -7 7.625 C-8.0209375 7.58246094 -8.0209375 7.58246094 -9.0625 7.5390625 C-11.14356126 7.84876364 -11.14356126 7.84876364 -12.58911133 9.66259766 C-14.33823744 12.56035392 -14.42571743 14.48812313 -14.51171875 17.859375 C-14.54716797 18.97441406 -14.58261719 20.08945312 -14.61914062 21.23828125 C-14.65297852 22.97658203 -14.65297852 22.97658203 -14.6875 24.75 C-14.72166016 25.92433594 -14.75582031 27.09867187 -14.79101562 28.30859375 C-14.87345173 31.20563389 -14.94261811 34.10237298 -15 37 C-17.64 37 -20.28 37 -23 37 C-23 25.12 -23 13.24 -23 1 C-16 1 -16 1 -13 2 C-8.42917981 -0.19661093 -5.080457 -0.57359998 0 0 Z " fill="#6E7175" transform="translate(476,341)"/>
<path d="M0 0 C2.31 0 4.62 0 7 0 C7 2.97 7 5.94 7 9 C9.64 9 12.28 9 15 9 C15 11.31 15 13.62 15 16 C12.36 16 9.72 16 7 16 C7.33 23.26 7.66 30.52 8 38 C10.64 38.33 13.28 38.66 16 39 C16 41.31 16 43.62 16 46 C14.27402225 46.16322732 12.54351663 46.27895945 10.8125 46.375 C9.36810547 46.47941406 9.36810547 46.47941406 7.89453125 46.5859375 C4.5913171 45.91727067 2.94763607 44.81621889 0.9309082 42.09912109 C-1.08835353 37.5458527 -0.49921951 32.50268825 -0.3125 27.625 C-0.28994141 26.50738281 -0.26738281 25.38976562 -0.24414062 24.23828125 C-0.18543378 21.4908011 -0.10336846 18.74610239 0 16 C-1.98 16 -3.96 16 -6 16 C-6 13.69 -6 11.38 -6 9 C-4.02 9 -2.04 9 0 9 C0 6.03 0 3.06 0 0 Z " fill="#65676C" transform="translate(433,333)"/>
<path d="M0 0 C23 0 23 0 29 5 C28.67 6.32 28.34 7.64 28 9 C25.75 9.6875 25.75 9.6875 23 10 C22.4225 9.525625 21.845 9.05125 21.25 8.5625 C18.23154566 6.46635115 15.8911055 6.49455528 12.25 6.3125 C10.1875 6.209375 8.125 6.10625 6 6 C6 11.61 6 17.22 6 23 C7.65 23 9.3 23 11 23 C10.67 23.99 10.34 24.98 10 26 C9.34 26 8.68 26 8 26 C7.09166031 28.72501908 6.81640015 30.62233971 6.68359375 33.44921875 C6.64169922 34.29677734 6.59980469 35.14433594 6.55664062 36.01757812 C6.51732422 36.89865234 6.47800781 37.77972656 6.4375 38.6875 C6.39431641 39.58017578 6.35113281 40.47285156 6.30664062 41.39257812 C6.20064647 43.59490108 6.09857949 45.79733473 6 48 C4.02 48 2.04 48 0 48 C0 32.16 0 16.32 0 0 Z " fill="#616368" transform="translate(331,329)"/>
<path d="M0 0 C3.0849931 1.24822572 4.83786857 3.1761083 6.86328125 5.75390625 C8.06971691 9.37321323 8.18596684 11.9462163 7.86328125 15.75390625 C6.23508665 18.83584603 4.83319063 21.01811292 2.05078125 23.12890625 C-1.1929569 24.05568858 -3.77933367 24.10731521 -7.13671875 23.75390625 C-10.07720653 21.98961358 -11.69368172 20.45873789 -13.51171875 17.56640625 C-14.4375291 13.40025969 -14.46702079 9.83779048 -13.13671875 5.75390625 C-9.74948897 0.86885521 -5.88689373 -1.26882564 0 0 Z " fill="#FAFAFA" transform="translate(203.13671875,348.24609375)"/>
<path d="M0 0 C3.1085699 1.46395577 5.12844381 3.10710886 7 6 C7.88621254 10.15622464 7.85076316 13.83941851 7 18 C4.78436838 20.97361086 3.26080415 22.36959793 0 24 C-4.03990348 24.38112297 -6.29321967 24.4240682 -9.8125 22.3125 C-12.72853387 19.22983562 -13.93353345 17.14647862 -14.06640625 12.85546875 C-13.82781714 8.49579507 -13.38322079 6.47165636 -10.5625 3 C-6.81599548 0.07589891 -4.77708203 -0.63093536 0 0 Z " fill="#FAFAFB" transform="translate(163,348)"/>
<path d="M0 0 C2.31 0 4.62 0 7 0 C7 16.5 7 33 7 50 C4.36 50 1.72 50 -1 50 C-1.02526838 43.03996553 -1.04283222 36.0799428 -1.05493164 29.11987305 C-1.05997341 26.75007688 -1.06680665 24.38028385 -1.07543945 22.01049805 C-1.0875119 18.61245961 -1.09322971 15.21446215 -1.09765625 11.81640625 C-1.10281754 10.74975235 -1.10797882 9.68309845 -1.11329651 8.5841217 C-1.11337204 7.60318039 -1.11344757 6.62223907 -1.11352539 5.61157227 C-1.115746 4.74331314 -1.11796661 3.87505402 -1.12025452 2.98048401 C-1 1 -1 1 0 0 Z " fill="#64676B" transform="translate(264,328)"/>
<path d="M0 0 C2.95928132 2.05863048 4.58885547 3.62190445 5.6328125 7.12109375 C6.44325867 12.23380205 6.02063025 15.62529413 3 20 C0.51487787 22.66263086 -0.77706951 22.97162703 -4.4375 23.4375 C-8.61907331 22.92397345 -10.1273824 22.03676718 -13 19 C-15.42566684 15.14098457 -15.21571491 11.53571889 -14.6171875 7.15625 C-13.65585931 3.79768571 -11.69615352 2.10431494 -9 0 C-5.77509551 -1.61245225 -3.43772273 -0.81573082 0 0 Z " fill="#F9F9FA" transform="translate(244,349)"/>
<path d="M0 0 C1.8871875 0.061875 1.8871875 0.061875 3.8125 0.125 C3.8125 2.435 3.8125 4.745 3.8125 7.125 C1.95625 7.2796875 1.95625 7.2796875 0.0625 7.4375 C-3.5564473 7.73907894 -5.5565588 8.58040764 -8.1875 11.125 C-8.83079092 13.92056905 -8.83079092 13.92056905 -8.796875 17.10546875 C-8.82910156 18.26884766 -8.86132812 19.43222656 -8.89453125 20.63085938 C-8.91580078 22.45327148 -8.91580078 22.45327148 -8.9375 24.3125 C-8.96714844 25.53904297 -8.99679687 26.76558594 -9.02734375 28.02929688 C-9.09812899 31.06126453 -9.15078413 34.09245933 -9.1875 37.125 C-11.8275 37.125 -14.4675 37.125 -17.1875 37.125 C-17.1875 25.245 -17.1875 13.365 -17.1875 1.125 C-11.1875 1.125 -11.1875 1.125 -9 1.75 C-8.401875 1.87375 -7.80375 1.9975 -7.1875 2.125 C-4.09861478 0.06574319 -3.47814073 -0.1140374 0 0 Z " fill="#6C6F73" transform="translate(546.1875,340.875)"/>
<path d="M0 0 C0 2.31 0 4.62 0 7 C-0.69867188 7.02578125 -1.39734375 7.0515625 -2.1171875 7.078125 C-3.02726562 7.13484375 -3.93734375 7.1915625 -4.875 7.25 C-5.77992188 7.29640625 -6.68484375 7.3428125 -7.6171875 7.390625 C-10.09975428 7.74250554 -10.09975428 7.74250554 -11.12304688 9.68554688 C-12.16531761 12.43630593 -12.32025709 14.70138884 -12.4140625 17.640625 C-12.45273437 18.71054687 -12.49140625 19.78046875 -12.53125 20.8828125 C-12.5621875 21.99398438 -12.593125 23.10515625 -12.625 24.25 C-12.66367187 25.37664062 -12.70234375 26.50328125 -12.7421875 27.6640625 C-12.83637336 30.44254548 -12.92199586 33.22102334 -13 36 C-15.31 36 -17.62 36 -20 36 C-20 24.45 -20 12.9 -20 1 C-18.02 1 -16.04 1 -14 1 C-13.67 1.66 -13.34 2.32 -13 3 C-12.34 2.505 -11.68 2.01 -11 1.5 C-7.03366759 -0.48316621 -4.39696738 -0.22357461 0 0 Z " fill="#64676B" transform="translate(424,342)"/>
<path d="M0 0 C12.19342668 -0.4926637 12.19342668 -0.4926637 15.890625 1.765625 C18 4 18 4 18.62890625 6 C18.60699219 6.66 18.58507812 7.32 18.5625 8 C18.56443359 8.99 18.56443359 8.99 18.56640625 10 C17.71677388 13.00008119 16.51197963 14.16572732 14 16 C9.2805118 16.53387876 4.76525513 16.17649093 0 16 C0 10.72 0 5.44 0 0 Z " fill="#F5F6F6" transform="translate(337,335)"/>
<path d="M0 0 C3.37840228 1.26616128 6.32512789 2.65025577 8 6 C2.56080402 9.09045226 2.56080402 9.09045226 0.0625 8.6875 C-0.618125 8.460625 -1.29875 8.23375 -2 8 C-7.33658748 7.65372147 -7.33658748 7.65372147 -12 10 C-13.9896995 10.39013716 -15.99019869 10.73202649 -18 11 C-19 9 -19 9 -18.4375 6.625 C-14.42757786 -0.69746652 -7.54492636 -1.11372285 0 0 Z " fill="#696C70" transform="translate(512,341)"/>
<path d="M0 0 C0.96808594 -0.01675781 1.93617188 -0.03351563 2.93359375 -0.05078125 C5.89997041 0.3591341 6.75636292 0.99207304 8.5625 3.3125 C7.6967843 5.98179007 6.84058762 7.98991836 5 10.125 C1.37020945 11.8933595 -2.4749175 12.09277686 -6.4375 11.3125 C-8.4375 8.3125 -8.4375 8.3125 -8.1875 5.25 C-6.88296325 0.1405644 -4.86680992 0.01938968 0 0 Z " fill="#F6F7F8" transform="translate(382.4375,360.6875)"/>
<path d="M0 0 C0.66 0.33 1.32 0.66 2 1 C2.33 3.31 2.66 5.62 3 8 C-5.91 8 -14.82 8 -24 8 C-20 3 -20 3 -16.109375 2.51171875 C-14.6554446 2.54476262 -13.20191425 2.60413037 -11.75 2.6875 C-11.00492187 2.71005859 -10.25984375 2.73261719 -9.4921875 2.75585938 C-7.660591 2.81456439 -5.83003347 2.90424243 -4 3 C-4 2.34 -4 1.68 -4 1 C-2.68 1.33 -1.36 1.66 0 2 C0 1.34 0 0.68 0 0 Z " fill="#616368" transform="translate(521,353)"/>
<path d="M0 0 C2.875 1.25 2.875 1.25 5 3 C5.33 4.32 5.66 5.64 6 7 C0.06 7 -5.88 7 -12 7 C-11 3 -11 3 -9.375 1.25 C-6.05074069 -0.49961016 -3.71021118 -0.39054855 0 0 Z " fill="#F7F8F9" transform="translate(510,348)"/>
<path d="M0 0 C0.66 -0.33 1.32 -0.66 2 -1 C23.72029703 -2.65686881 23.72029703 -2.65686881 32 1 C34.25 3.078125 34.25 3.078125 36 5 C35.38898438 4.7834375 34.77796875 4.566875 34.1484375 4.34375 C26.94770395 2.1531043 20.24702643 1.69750104 12.75 1.6875 C11.81591309 1.68234375 10.88182617 1.6771875 9.91943359 1.671875 C4.27141796 1.72808415 -0.57869998 2.4197739 -6 4 C-7.33201546 4.33856124 -8.66504234 4.6732326 -10 5 C-9.625 2.5625 -9.625 2.5625 -9 0 C-5.95751583 -1.52124209 -3.29979168 -0.47139881 0 0 Z " fill="#D74F44" transform="translate(307,108)"/>
<path d="M0 0 C2 1.9375 2 1.9375 3 4 C3 4.66 3 5.32 3 6 C-2.61 6 -8.22 6 -14 6 C-12 1 -12 1 -10.375 -0.375 C-6.78897581 -1.31869058 -3.54777674 -1.06207329 0 0 Z " fill="#F6F7F8" transform="translate(299,349)"/>
<path d="M0 0 C3.07692308 5.41538462 3.07692308 5.41538462 2.6875 8.375 C2.460625 8.91125 2.23375 9.4475 2 10 C1.67 9.01 1.34 8.02 1 7 C0.01 7.33 -0.98 7.66 -2 8 C-2.66 7.67 -3.32 7.34 -4 7 C-4 7.66 -4 8.32 -4 9 C-10.6 9 -17.2 9 -24 9 C-23.67 8.34 -23.34 7.68 -23 7 C-17.06 7.33 -11.12 7.66 -5 8 C-5.66 6.02 -6.32 4.04 -7 2 C-4.35261084 0.5393715 -3.10551666 0 0 0 Z " fill="#7B7D81" transform="translate(521,347)"/>
<path d="M0 0 C5.7941464 0.35474366 9.78795706 1.88314447 14 6 C14.33 6.99 14.66 7.98 15 9 C13.25 11.0625 13.25 11.0625 11 13 C8.75 12.75 8.75 12.75 7 12 C6.375 10.1875 6.375 10.1875 6 8 C6.66 7.01 7.32 6.02 8 5 C7.34 4.67 6.68 4.34 6 4 C6 3.34 6 2.68 6 2 C4.35 2 2.7 2 1 2 C0.67 1.34 0.34 0.68 0 0 Z " fill="#6E7074" transform="translate(117,327)"/>
<path d="M0 0 C0.33 1.32 0.66 2.64 1 4 C0.34 4 -0.32 4 -1 4 C-1.2475 4.721875 -1.495 5.44375 -1.75 6.1875 C-3.68767416 10.54726687 -6.03723926 13.3581595 -10 16 C-10.33 16.99 -10.66 17.98 -11 19 C-10.2575 19.2475 -9.515 19.495 -8.75 19.75 C-5.79875938 21.09147301 -4.15185026 22.60905526 -2 25 C-5.59857954 25 -7.09451118 24.04169485 -10 22 C-10 21.34 -10 20.68 -10 20 C-12.475 19.01 -12.475 19.01 -15 18 C-14.319375 17.34 -13.63875 16.68 -12.9375 16 C-8.07529782 11.12394539 -3.25045747 6.11850818 0 0 Z " fill="#568BDA" transform="translate(368,204)"/>
<path d="M0 0 C0.33 0 0.66 0 1 0 C0.67 4.29 0.34 8.58 0 13 C-0.66 13 -1.32 13 -2 13 C-1.85978195 15.64624284 -1.71310224 18.29184578 -1.5625 20.9375 C-1.52318359 21.69224609 -1.48386719 22.44699219 -1.44335938 23.22460938 C-1.55961976 26.91944187 -1.55961976 26.91944187 0 30 C0.07244053 32.01964199 0.08377188 34.04167124 0.0625 36.0625 C0.05347656 37.16722656 0.04445313 38.27195313 0.03515625 39.41015625 C0.02355469 40.26480469 0.01195312 41.11945313 0 42 C-5.35462123 33.07563128 -4.11342058 17.21444043 -2.328125 7.25 C-1.64676773 4.78168686 -0.92030518 2.38841105 0 0 Z " fill="#FEF9CC" transform="translate(263,147)"/>
<path d="M0 0 C0.66 0.33 1.32 0.66 2 1 C1 3 1 3 -0.9453125 3.87109375 C-3.50996781 5.28019144 -3.8496768 6.37224722 -4.875 9.0625 C-5.86328125 11.2421875 -5.86328125 11.2421875 -7 13 C-10.0625 13.6875 -10.0625 13.6875 -13 14 C-14.6446674 16.46326712 -14.6446674 16.46326712 -16 19 C-18.0859375 19.65625 -18.0859375 19.65625 -20 20 C-14.62803192 11.98572241 -7.77077241 5.67588676 0 0 Z " fill="#DC554A" transform="translate(260,86)"/>
<path d="M0 0 C1.98 0.99 1.98 0.99 4 2 C3.83628906 3.19496094 3.67257812 4.38992187 3.50390625 5.62109375 C2.78467466 12.09417807 2.89254525 18.55789325 2.9375 25.0625 C2.94201172 26.30966797 2.94652344 27.55683594 2.95117188 28.84179688 C2.96286837 31.89458221 2.97925914 34.94726498 3 38 C2.34 38 1.68 38 1 38 C0.95055295 33.49765627 0.91425839 28.9954707 0.89013672 24.49291992 C0.88008065 22.96131639 0.866434 21.42973205 0.84912109 19.89819336 C0.82485502 17.69640364 0.81351312 15.49486781 0.8046875 13.29296875 C0.79436493 12.60849167 0.78404236 11.92401459 0.77340698 11.21879578 C0.77254618 7.56938339 0.91432334 6.12851498 3 3 C2.01 2.67 1.02 2.34 0 2 C0 1.34 0 0.68 0 0 Z " fill="#F2BD33" transform="translate(258,147)"/>
<path d="M0 0 C-8.66054557 3.85678371 -16.69439444 4.38575635 -26.0625 4.375 C-27.16907959 4.37628906 -28.27565918 4.37757813 -29.41577148 4.37890625 C-38.16113805 4.26080723 -38.16113805 4.26080723 -42 2 C-39.42235611 1.33717728 -37.49045415 0.89509482 -34.86328125 1.45703125 C-31.02048113 2.18574778 -27.27886453 2.23331508 -23.375 2.25 C-22.57827881 2.25394775 -21.78155762 2.25789551 -20.96069336 2.26196289 C-15.33235064 2.20665449 -10.40691897 1.43905598 -5.06640625 -0.44140625 C-3 -1 -3 -1 0 0 Z " fill="#E1FAE9" transform="translate(345,226)"/>
<path d="M0 0 C0.66 0.33 1.32 0.66 2 1 C0.7391988 2.03319813 -0.53403258 3.05124379 -1.8125 4.0625 C-2.87404297 4.91521484 -2.87404297 4.91521484 -3.95703125 5.78515625 C-4.63121094 6.18605469 -5.30539062 6.58695312 -6 7 C-6.99 6.67 -7.98 6.34 -9 6 C-9 6.66 -9 7.32 -9 8 C-10.6796875 9.32421875 -10.6796875 9.32421875 -12.875 10.6875 C-13.95394531 11.37392578 -13.95394531 11.37392578 -15.0546875 12.07421875 C-16.01761719 12.53248047 -16.01761719 12.53248047 -17 13 C-17.66 12.67 -18.32 12.34 -19 12 C-7.0457233 2.94639338 -7.0457233 2.94639338 0 0 Z " fill="#FDE5DE" transform="translate(298,112)"/>
<path d="M0 0 C0.33 0 0.66 0 1 0 C1.33 4.62 1.66 9.24 2 14 C0.35 14.66 -1.3 15.32 -3 16 C-2.30834212 10.58201328 -1.24200752 5.3177215 0 0 Z " fill="#4E89E7" transform="translate(372,191)"/>
<path d="M0 0 C2.64 1.98 5.28 3.96 8 6 C7.01 6.495 7.01 6.495 6 7 C3.96855359 6.06553465 1.96466413 5.06775224 0 4 C-0.33 6.31 -0.66 8.62 -1 11 C-1.66 11 -2.32 11 -3 11 C-3.33 12.98 -3.66 14.96 -4 17 C-5.6852084 12.92320841 -4.16939007 10.16924407 -2.5625 6.25 C-2.08941406 5.07953125 -1.61632812 3.9090625 -1.12890625 2.703125 C-0.75636719 1.81109375 -0.38382813 0.9190625 0 0 Z " fill="#F5BB3C" transform="translate(228,123)"/>
<path d="M0 0 C2.7859168 3.1341564 3.20678674 4.86426516 3 9 C3.29044914 10.34332728 3.60955794 11.68225804 4 13 C1.05248333 10.25576034 -1.22773678 7.63780345 -3 4 C-2.67 3.01 -2.34 2.02 -2 1 C-1.34 0.67 -0.68 0.34 0 0 Z " fill="#42A65E" transform="translate(233,215)"/>
<path d="M0 0 C0.66 0 1.32 0 2 0 C2 1.65 2 3.3 2 5 C2.99 5.33 3.98 5.66 5 6 C6.1875 9.0625 6.1875 9.0625 7 12 C8.32 11.67 9.64 11.34 11 11 C9.625 12.5 9.625 12.5 8 14 C7.34 14 6.68 14 6 14 C5.67 14.66 5.34 15.32 5 16 C0 2.81818182 0 2.81818182 0 0 Z " fill="#E5C236" transform="translate(223,200)"/>
<path d="M0 0 C2.85423192 -0.02718316 5.70820015 -0.04692705 8.5625 -0.0625 C9.36236328 -0.07087891 10.16222656 -0.07925781 10.98632812 -0.08789062 C23.65320924 -0.13959218 23.65320924 -0.13959218 27.4375 3.0625 C28.2109375 4.0215625 28.2109375 4.0215625 29 5 C28.33097656 4.79503906 27.66195313 4.59007813 26.97265625 4.37890625 C17.9852468 1.85760615 9.27111072 1.31855712 0 1 C0 0.67 0 0.34 0 0 Z " fill="#D57167" transform="translate(314,108)"/>
<path d="M0 0 C2.6875 0.875 2.6875 0.875 5 2 C4.375 3.9375 4.375 3.9375 3 6 C-0.125 6.75 -0.125 6.75 -3 7 C-3.33 6.34 -3.66 5.68 -4 5 C-3 2 -3 2 0 0 Z " fill="#606468" transform="translate(497,345)"/>
<path d="M0 0 C5.07648175 2.78387709 9.4833069 6.40829416 14 10 C13.01 10.33 12.02 10.66 11 11 C11 10.34 11 9.68 11 9 C10.01 9 9.02 9 8 9 C8 8.34 8 7.68 8 7 C7.4225 6.731875 6.845 6.46375 6.25 6.1875 C3.94449957 4.97070811 1.97943808 3.69666121 0 2 C0 1.34 0 0.68 0 0 Z " fill="#FEAB25" transform="translate(244,136)"/>
<path d="M0 0 C0.33 0.66 0.66 1.32 1 2 C-1.50123051 6.16871752 -3.49415979 8.98422938 -8 11 C-8.66 10.67 -9.32 10.34 -10 10 C-6.7 6.7 -3.4 3.4 0 0 Z " fill="#FBD8D4" transform="translate(369,112)"/>
<path d="M0 0 C0.66 0.33 1.32 0.66 2 1 C1.34 3.31 0.68 5.62 0 8 C-0.33 6.68 -0.66 5.36 -1 4 C-1.78375 4.515625 -2.5675 5.03125 -3.375 5.5625 C-4.24125 6.036875 -5.1075 6.51125 -6 7 C-6.66 6.67 -7.32 6.34 -8 6 C-5.36 4.02 -2.72 2.04 0 0 Z " fill="#46A345" transform="translate(259,192)"/>
<path d="M0 0 C0.33 0.66 0.66 1.32 1 2 C-0.21484375 4.3828125 -0.21484375 4.3828125 -1.9375 7.125 C-2.50339844 8.03507813 -3.06929688 8.94515625 -3.65234375 9.8828125 C-4.09707031 10.58148438 -4.54179687 11.28015625 -5 12 C-6.34780093 9.30439815 -5.67336458 8.257383 -4.75 5.4375 C-4.37101562 4.22900391 -4.37101562 4.22900391 -3.984375 2.99609375 C-3.65953125 2.33738281 -3.3346875 1.67867187 -3 1 C-2.01 0.67 -1.02 0.34 0 0 Z " fill="#5386E4" transform="translate(406,218)"/>
<path d="M0 0 C0.33 0 0.66 0 1 0 C0.67 4.29 0.34 8.58 0 13 C-0.66 13 -1.32 13 -2 13 C-2.33 13.66 -2.66 14.32 -3 15 C-2.44854729 9.76119922 -1.57077907 5.02649303 0 0 Z " fill="#FCECBD" transform="translate(263,147)"/>
<path d="M0 0 C0 3.93169105 -1.39419615 5.16427228 -4 8 C-4.66 8 -5.32 8 -6 8 C-6.33 8.99 -6.66 9.98 -7 11 C-7.66 11 -8.32 11 -9 11 C-7.59155282 7.78475695 -5.89655214 5.67816132 -3.375 3.25 C-2.74335938 2.63640625 -2.11171875 2.0228125 -1.4609375 1.390625 C-0.73777344 0.70226562 -0.73777344 0.70226562 0 0 Z " fill="#E2F5F4" transform="translate(391,242)"/>
<path d="M0 0 C0 0.66 0 1.32 0 2 C-3.32127851 4.76773209 -4.98431692 6.07523578 -9.375 5.75 C-10.24125 5.5025 -11.1075 5.255 -12 5 C-8.45976076 2.63984051 -4.36489861 0 0 0 Z " fill="#56AC6D" transform="translate(349,224)"/>
<path d="M0 0 C4.99275057 1.27721526 7.57611908 3.17330957 11 7 C7.40142046 7 5.90548882 6.04169485 3 4 C3 3.34 3 2.68 3 2 C2.01 1.67 1.02 1.34 0 1 C0 0.67 0 0.34 0 0 Z " fill="#4B9FB6" transform="translate(355,222)"/>
<path d="M0 0 C2.125 0.9375 2.125 0.9375 4 2 C3.34 2 2.68 2 2 2 C1.67 2.99 1.34 3.98 1 5 C-1.0625 5.6875 -1.0625 5.6875 -3 6 C-2.625 3.5625 -2.625 3.5625 -2 1 C-1.34 0.67 -0.68 0.34 0 0 Z " fill="#E34B43" transform="translate(300,107)"/>
<path d="M0 0 C2 2 2 2 2.125 4.625 C2.08375 5.40875 2.0425 6.1925 2 7 C1.34 7 0.68 7 0 7 C-0.99 7.99 -1.98 8.98 -3 10 C-2.01 6.7 -1.02 3.4 0 0 Z " fill="#E0F1FE" transform="translate(411,208)"/>
<path d="M0 0 C0.99 0.33 1.98 0.66 3 1 C1.25 3.0625 1.25 3.0625 -1 5 C-3.1875 4.875 -3.1875 4.875 -5 4 C-5.33 3.34 -5.66 2.68 -6 2 C-4.02 2 -2.04 2 0 2 C0 1.34 0 0.68 0 0 Z " fill="#5491D8" transform="translate(389,241)"/>
<path d="M0 0 C0.66 0 1.32 0 2 0 C2.33 0.99 2.66 1.98 3 3 C1.35 4.32 -0.3 5.64 -2 7 C-2.33 5.35 -2.66 3.7 -3 2 C-2.01 2.33 -1.02 2.66 0 3 C0 2.01 0 1.02 0 0 Z " fill="#DB483C" transform="translate(277,121)"/>
<path d="M0 0 C1.0326802 2.78823655 1.04509293 3.8677274 0.0625 6.75 C-0.288125 7.4925 -0.63875 8.235 -1 9 C-1.33 9 -1.66 9 -2 9 C-2.6875 6.1875 -2.6875 6.1875 -3 3 C-1.5625 1.125 -1.5625 1.125 0 0 Z " fill="#4C88E3" transform="translate(411,204)"/>
<path d="M0 0 C0 3.90838866 -1.50567876 5.11594107 -4 8 C-4.99 7.67 -5.98 7.34 -7 7 C-4.69 4.69 -2.38 2.38 0 0 Z " fill="#FFE1DF" transform="translate(381,100)"/>
<path d="M0 0 C0.99773437 0.02320313 1.99546875 0.04640625 3.0234375 0.0703125 C4.52777344 0.09738281 4.52777344 0.09738281 6.0625 0.125 C6.83335937 0.14820313 7.60421875 0.17140625 8.3984375 0.1953125 C8.3984375 0.5253125 8.3984375 0.8553125 8.3984375 1.1953125 C5.7584375 1.1953125 3.1184375 1.1953125 0.3984375 1.1953125 C0.3984375 1.8553125 0.3984375 2.5153125 0.3984375 3.1953125 C-1.2515625 2.8653125 -2.9015625 2.5353125 -4.6015625 2.1953125 C-2.6015625 0.1953125 -2.6015625 0.1953125 0 0 Z " fill="#6E7074" transform="translate(235.6015625,340.8046875)"/>
<path d="M0 0 C-3.20380017 2.13586678 -4.01939967 2.23132175 -7.6875 2.125 C-8.89986328 2.09792969 -8.89986328 2.09792969 -10.13671875 2.0703125 C-11.05904297 2.03550781 -11.05904297 2.03550781 -12 2 C-12 1.67 -12 1.34 -12 1 C-3.96428571 -1.27678571 -3.96428571 -1.27678571 0 0 Z " fill="#DBF5E3" transform="translate(348,269)"/>
<path d="M0 0 C0.66 0.33 1.32 0.66 2 1 C0.68 3.64 -0.64 6.28 -2 9 C-2.33 9 -2.66 9 -3 9 C-2.25 2.25 -2.25 2.25 0 0 Z " fill="#D85146" transform="translate(266,138)"/>
<path d="M0 0 C2.3125 0.1875 2.3125 0.1875 5 1 C6.8125 3.5625 6.8125 3.5625 8 6 C4.63408134 4.55746343 2.48952921 2.66735273 0 0 Z " fill="#DF4D20" transform="translate(239,131)"/>
<path d="M0 0 C2.75 -0.25 2.75 -0.25 6 0 C8.375 2 8.375 2 10 4 C8.51882199 3.71872579 7.04006751 3.42466268 5.5625 3.125 C4.73878906 2.96257812 3.91507812 2.80015625 3.06640625 2.6328125 C2.38449219 2.42398438 1.70257813 2.21515625 1 2 C0.67 1.34 0.34 0.68 0 0 Z " fill="#D76054" transform="translate(333,109)"/>
<path d="M0 0 C0.66 0.33 1.32 0.66 2 1 C-1.32307692 4.93846154 -1.32307692 4.93846154 -4.75 5.25 C-5.4925 5.1675 -6.235 5.085 -7 5 C-2.25 1.125 -2.25 1.125 0 0 Z " fill="#DEF7E2" transform="translate(374,256)"/>
<path d="M0 0 C0.33 0 0.66 0 1 0 C1.36923077 6.52307692 1.36923077 6.52307692 -0.5 8.9375 C-0.995 9.288125 -1.49 9.63875 -2 10 C-1.125 2.25 -1.125 2.25 0 0 Z " fill="#F0BE2E" transform="translate(222,140)"/>
<path d="M0 0 C6.875 3.75 6.875 3.75 8 6 C5.21788056 5.62403791 3.4120716 5.32681541 1.1875 3.5625 C0 2 0 2 0 0 Z " fill="#FEAC27" transform="translate(236,130)"/>
</svg>
